# xmcd
# 
# Track frame offsets:
#     150
#     17667
#     34089
#     51666
#     71062
#     88786
#     104661
#     126239
#     143918
#     159881
#     178616
#     194205
#     211348
#     229870
#     250590
#     268565
#     287608
#     300746
#     318660
#     336761
# 
# Disc length: 4725
# 
# Revision: 0
# Processed by: cddbd v1.5.2PL0 Copyright (c) Steve Scherf et al.
# Submitted via: BonkEnc v1.0rc2
# 
DISCID=31127314
DTITLE=westlife - westlife
DYEAR=6
DGENRE=Country
TTITLE0=a
TTITLE1=b
TTITLE2=c
TTITLE3=d
TTITLE4=f
TTITLE5=g
TTITLE6=h
TTITLE7=i
TTITLE8=j
TTITLE9=k
TTITLE10=l
TTITLE11=m
TTITLE12=n
TTITLE13=o
TTITLE14=q
TTITLE15=r
TTITLE16=s
TTITLE17=t
TTITLE18=v
TTITLE19=w
EXTD=
EXTT0=
EXTT1=
EXTT2=
EXTT3=
EXTT4=
EXTT5=
EXTT6=
EXTT7=
EXTT8=
EXTT9=
EXTT10=
EXTT11=
EXTT12=
EXTT13=
EXTT14=
EXTT15=
EXTT16=
EXTT17=
EXTT18=
EXTT19=
PLAYORDER=
